<svg xmlns="http://www.w3.org/2000/svg" viewBox="0 0 1200 800" width="1200" height="800">
<rect width="1200" height="800" fill="#2B1B4A"/>
<text x="600" y="150" text-anchor="middle" font-family="Georgia, serif"
      font-size="94" font-weight="bold" fill="#C9A227">Emperor</text>
<text x="600" y="212" text-anchor="middle" font-family="Georgia, serif"
      font-size="36" fill="#F6F1E7">A game of rank, ruin and revolution.</text>
<g transform="translate(250,430) rotate(-22) scale(0.44)"><rect x="-250" y="-350" width="500" height="700" rx="36" fill="#201037"/><rect x="-242" y="-342" width="484" height="684" rx="30" fill="#3C1E67"/><rect x="-220" y="-320" width="440" height="640" rx="18" fill="#F6F1E7"/><text x="0" y="60" text-anchor="middle" font-family="Georgia, serif" font-size="230" font-weight="bold" fill="#3C1E67">1</text></g><g transform="translate(425,430) rotate(-11) scale(0.44)"><rect x="-250" y="-350" width="500" height="700" rx="36" fill="#581D59"/><rect x="-242" y="-342" width="484" height="684" rx="30" fill="#862D87"/><rect x="-220" y="-320" width="440" height="640" rx="18" fill="#F6F1E7"/><text x="0" y="60" text-anchor="middle" font-family="Georgia, serif" font-size="230" font-weight="bold" fill="#862D87">4</text></g><g transform="translate(600,430) rotate(0) scale(0.44)"><rect x="-250" y="-350" width="500" height="700" rx="36" fill="#792D4F"/><rect x="-242" y="-342" width="484" height="684" rx="30" fill="#A63E6C"/><rect x="-220" y="-320" width="440" height="640" rx="18" fill="#F6F1E7"/><text x="0" y="60" text-anchor="middle" font-family="Georgia, serif" font-size="230" font-weight="bold" fill="#A63E6C">7</text></g><g transform="translate(775,430) rotate(11) scale(0.44)"><rect x="-250" y="-350" width="500" height="700" rx="36" fill="#964A3F"/><rect x="-242" y="-342" width="484" height="684" rx="30" fill="#BA6559"/><rect x="-220" y="-320" width="440" height="640" rx="18" fill="#F6F1E7"/><text x="0" y="60" text-anchor="middle" font-family="Georgia, serif" font-size="230" font-weight="bold" fill="#BA6559">10</text></g><g transform="translate(950,430) rotate(22) scale(0.44)"><rect x="-250" y="-350" width="500" height="700" rx="36" fill="#A97B4C"/><rect x="-242" y="-342" width="484" height="684" rx="30" fill="#C09A72"/><rect x="-220" y="-320" width="440" height="640" rx="18" fill="#F6F1E7"/><text x="0" y="60" text-anchor="middle" font-family="Georgia, serif" font-size="230" font-weight="bold" fill="#C09A72">12</text></g>
<text x="600" y="706" text-anchor="middle" font-family="Georgia, serif"
      font-size="32" fill="#F6F1E7" opacity="0.8">Shed your hand first and rule the table.</text>
<text x="600" y="752" text-anchor="middle" font-family="Georgia, serif"
      font-size="32" fill="#F6F1E7" opacity="0.8">Finish last and serve it.</text>
</svg>